<svg width="65" height="65" viewBox="0 0 65 65" fill="none" xmlns="http://www.w3.org/2000/svg">
<path d="M39.6094 44.8335H34.9058V29.4531C34.9058 29.1738 34.6772 28.9453 34.3979 28.9453H30.5893C30.31 28.9453 30.0815 29.1738 30.0815 29.4531V44.8335H25.3906C24.9653 44.8335 24.7305 45.3223 24.9907 45.6523L32.1001 54.647C32.1476 54.7077 32.2083 54.7568 32.2776 54.7905C32.3469 54.8243 32.4229 54.8418 32.5 54.8418C32.5771 54.8418 32.6531 54.8243 32.7224 54.7905C32.7917 54.7568 32.8524 54.7077 32.8999 54.647L40.0093 45.6523C40.2695 45.3223 40.0347 44.8335 39.6094 44.8335V44.8335Z" fill="#ED4C5C"/>
<path d="M51.5049 23.2769C48.5977 15.6089 41.1899 10.1562 32.5127 10.1562C23.8355 10.1562 16.4277 15.6025 13.5205 23.2705C8.08057 24.6987 4.0625 29.6562 4.0625 35.5469C4.0625 42.561 9.74365 48.2422 16.7515 48.2422H19.2969C19.5762 48.2422 19.8047 48.0137 19.8047 47.7344V43.9258C19.8047 43.6465 19.5762 43.418 19.2969 43.418H16.7515C14.6123 43.418 12.6001 42.5674 11.1021 41.0249C9.61035 39.4888 8.81689 37.4194 8.88672 35.2739C8.94385 33.5981 9.51514 32.0239 10.5498 30.6973C11.6099 29.3452 13.0952 28.3613 14.7456 27.9233L17.1514 27.2949L18.0337 24.9717C18.5796 23.5244 19.3413 22.1724 20.2998 20.9473C21.2461 19.733 22.3669 18.6656 23.626 17.7798C26.2349 15.9453 29.3071 14.9741 32.5127 14.9741C35.7183 14.9741 38.7905 15.9453 41.3994 17.7798C42.6626 18.6685 43.7798 19.7349 44.7256 20.9473C45.6841 22.1724 46.4458 23.5308 46.9917 24.9717L47.8677 27.2886L50.2671 27.9233C53.7075 28.8501 56.1133 31.9795 56.1133 35.5469C56.1133 37.6479 55.2944 39.6284 53.8091 41.1138C53.0806 41.8465 52.2141 42.4274 51.2596 42.8229C50.3052 43.2184 49.2817 43.4207 48.2485 43.418H45.7031C45.4238 43.418 45.1953 43.6465 45.1953 43.9258V47.7344C45.1953 48.0137 45.4238 48.2422 45.7031 48.2422H48.2485C55.2563 48.2422 60.9375 42.561 60.9375 35.5469C60.9375 29.6626 56.9321 24.7114 51.5049 23.2769Z" fill="#ED4C5C"/>
</svg>
