<svg width="47" height="60" viewBox="0 0 47 60" fill="none" xmlns="http://www.w3.org/2000/svg">
<path fill-rule="evenodd" clip-rule="evenodd" d="M24.4585 0.486914L46.0278 7.95059C46.5547 8.1375 46.9863 8.74981 46.9736 9.31699V40.4092C46.9736 40.9828 46.6118 41.7305 46.1738 42.0785L24.2935 59.3906C24.0776 59.5646 23.7856 59.6549 23.4937 59.6549C23.2017 59.6549 22.916 59.5646 22.6938 59.3906L0.813477 42.0785C0.375489 41.724 0.0136719 40.9764 0.0136719 40.4092V9.31699C0.0136719 8.74981 0.445313 8.13105 0.972168 7.95059L22.5415 0.486914C22.8018 0.39668 23.1509 0.351562 23.5 0.351562C23.8491 0.351562 24.1982 0.39668 24.4585 0.486914ZM23.5 54.1377L42.416 39.1717V11.6115L23.5 5.06309L4.58398 11.6115V39.1717L23.5 54.1377Z" fill="#ED4C5C"/>
<path fill-rule="evenodd" clip-rule="evenodd" d="M16.5747 31.0828L11.6553 36.0779C11.5608 36.1748 11.5078 36.3057 11.5078 36.4421C11.5078 36.5785 11.5608 36.7093 11.6553 36.8062L13.8135 38.9977C14.0103 39.1975 14.334 39.1975 14.5308 38.9977L19.4502 34.0025C22.9858 36.2648 27.7085 35.833 30.7871 32.707C34.3608 29.0783 34.3608 23.2002 30.7871 19.5715C27.2134 15.9428 21.4243 15.9428 17.8506 19.5715C14.772 22.6975 14.3467 27.4992 16.5747 31.0828ZM27.9116 22.4912C25.9312 20.4738 22.7129 20.4738 20.7261 22.4912C18.7393 24.5086 18.7456 27.7699 20.7261 29.7873C22.7065 31.8047 25.9248 31.8047 27.9116 29.7873C29.8984 27.7764 29.8984 24.5086 27.9116 22.4912Z" fill="#ED4C5C"/>
</svg>
