<svg width="45" height="55" viewBox="0 0 45 55" fill="none" xmlns="http://www.w3.org/2000/svg">
<path d="M12.0284 27.6696C12.0284 26.2157 11.0905 25.3472 9.43671 25.3472C8.7617 25.3472 8.30518 25.418 8.06537 25.4868V30.1565C8.34958 30.2253 8.69775 30.2502 9.17559 30.2502C10.9395 30.2502 12.0284 29.288 12.0284 27.6696Z" fill="#ED4C5C"/>
<path d="M22.2709 25.3931C21.5301 25.3931 21.0505 25.4638 20.7663 25.5346V35.8801C21.0505 35.9509 21.507 35.9509 21.9209 35.9509C24.9265 35.9738 26.8876 34.1909 26.8876 30.4147C26.9107 27.1301 25.1237 25.3931 22.2709 25.3931V25.3931Z" fill="#ED4C5C"/>
<path d="M41.8942 19.3155H40.6899V13.0581C40.6889 13.0184 40.6853 12.9787 40.6792 12.9395C40.6811 12.6878 40.5985 12.4439 40.4465 12.2527L30.7778 0.361555L30.7707 0.353904C30.6479 0.210413 30.4914 0.10532 30.3177 0.0497379L30.2644 0.0306075C30.1906 0.0107908 30.1149 0.000516144 30.0388 0H6.27657C5.19122 0 4.31015 0.950758 4.31015 2.11769V19.3155H3.10578C1.55325 19.3155 0.295593 20.6699 0.295593 22.3419V38.082C0.295593 39.752 1.55503 41.1084 3.10578 41.1084H4.31015V51.8843C4.31015 53.0512 5.19122 54.002 6.27657 54.002H38.7234C39.807 54.002 40.6899 53.0512 40.6899 51.8843V41.1084H41.8942C43.4468 41.1084 44.7044 39.752 44.7044 38.082V22.3419C44.7044 20.6699 43.445 19.3155 41.8942 19.3155V19.3155ZM6.27657 2.11769H29.0547V12.9529C29.0547 13.5383 29.4953 14.0108 30.0388 14.0108H38.7252V19.3155H6.27657V2.11769ZM30.4172 30.2961C30.4172 33.3225 29.394 35.4115 27.9747 36.7008C26.4293 38.0839 24.0774 38.742 21.2015 38.742C19.4802 38.742 18.2616 38.6234 17.4321 38.5086V22.977C18.6524 22.7666 20.2423 22.6499 21.9209 22.6499C24.708 22.6499 26.5163 23.1893 27.9321 24.339C29.458 25.5576 30.4172 27.505 30.4172 30.2961V30.2961ZM4.77378 38.5794V22.977C5.79696 22.7895 7.2358 22.6499 9.26085 22.6499C11.309 22.6499 12.7691 23.0726 13.7479 23.9163C14.6841 24.714 15.3147 26.0282 15.3147 27.5758C15.3147 29.1254 14.8368 30.4377 13.9646 31.3291C12.8313 32.4788 11.1544 32.9953 9.19334 32.9953C8.75814 32.9953 8.36556 32.9724 8.06181 32.9246V38.5794H4.77378ZM38.7234 51.3104H6.27657V41.1084H38.7234V51.3104ZM41.5727 25.6992H35.9292V29.3128H41.2014V32.2225H35.9292V38.5794H32.5986V22.7666H41.5727V25.6992Z" fill="#ED4C5C"/>
</svg>
